<?xml version="1.0" standalone="no"?>
<!DOCTYPE svg PUBLIC "-//W3C//DTD SVG 20010904//EN"
 "http://www.w3.org/TR/2001/REC-SVG-20010904/DTD/svg10.dtd">
<svg version="1.0" xmlns="http://www.w3.org/2000/svg"
 width="260.000000pt" height="260.000000pt" viewBox="0 0 260.000000 260.000000"
 preserveAspectRatio="xMidYMid meet">
<metadata>
Created by potrace 1.11, written by Peter Selinger 2001-2013
</metadata>
<g transform="translate(0.000000,260.000000) scale(0.100000,-0.100000)"
fill="#000000" stroke="none">
<path d="M850 2209 c-96 -15 -265 -74 -345 -121 -99 -58 -224 -186 -263 -269
-66 -138 -66 -280 0 -418 38 -80 164 -211 250 -260 l58 -32 -21 -41 c-12 -23
-57 -109 -101 -191 -43 -82 -78 -151 -76 -152 2 -2 100 64 218 147 198 137
218 149 250 144 94 -14 283 -18 361 -7 306 44 535 192 641 416 31 66 33 76 33
180 0 90 -4 120 -23 166 -80 200 -267 346 -532 416 -75 20 -125 26 -240 28
-80 2 -174 -1 -210 -6z m-90 -579 l0 -90 -85 0 -85 0 0 90 0 90 85 0 85 0 0
-90z m360 0 l0 -90 -90 0 -90 0 0 90 0 90 90 0 90 0 0 -90z m358 3 l-3 -88
-87 -3 -88 -3 0 91 0 90 90 0 91 0 -3 -87z"/>
<path d="M1993 1713 c16 -55 18 -153 3 -223 -46 -219 -220 -408 -484 -524
-100 -44 -283 -86 -404 -93 l-107 -6 47 -39 c63 -52 207 -121 312 -148 104
-28 302 -37 408 -21 l74 11 61 -41 c34 -23 126 -86 204 -141 78 -54 144 -98
148 -98 3 0 -14 37 -38 83 -24 45 -67 125 -95 178 l-51 97 61 37 c78 49 174
144 216 216 48 83 70 197 54 288 -21 123 -89 236 -189 316 -61 48 -161 108
-201 120 -20 6 -23 4 -19 -12z"/>
</g>
</svg>
